<svg xmlns="http://www.w3.org/2000/svg" width="231.77" height="35" viewBox="0 0 231.77 35"><rect class="svg__rect" x="0" y="0" width="115.31" height="35" fill="#31C4F3"/><rect class="svg__rect" x="113.31" y="0" width="118.46000000000001" height="35" fill="#389AD5"/><path class="svg__text" d="M15.69 22L14.22 22L14.22 13.47L16.14 13.47L18.60 20.01L21.06 13.47L22.97 13.47L22.97 22L21.49 22L21.49 19.19L21.64 15.43L19.12 22L18.06 22L15.55 15.43L15.69 19.19L15.69 22ZM28.49 22L26.95 22L30.17 13.47L31.50 13.47L34.73 22L33.18 22L32.49 20.01L29.18 20.01L28.49 22ZM30.83 15.28L29.60 18.82L32.07 18.82L30.83 15.28ZM41.14 22L38.69 22L38.69 13.47L41.21 13.47Q42.34 13.47 43.21 13.97Q44.09 14.48 44.57 15.40Q45.05 16.33 45.05 17.52L45.05 17.52L45.05 17.95Q45.05 19.16 44.57 20.08Q44.08 21.00 43.19 21.50Q42.30 22 41.14 22L41.14 22ZM40.17 14.66L40.17 20.82L41.14 20.82Q42.30 20.82 42.93 20.09Q43.55 19.36 43.56 17.99L43.56 17.99L43.56 17.52Q43.56 16.13 42.96 15.40Q42.35 14.66 41.21 14.66L41.21 14.66L40.17 14.66ZM55.09 22L49.51 22L49.51 13.47L55.05 13.47L55.05 14.66L51.00 14.66L51.00 17.02L54.50 17.02L54.50 18.19L51.00 18.19L51.00 20.82L55.09 20.82L55.09 22ZM66.65 22L64.68 13.47L66.15 13.47L67.47 19.88L69.10 13.47L70.34 13.47L71.96 19.89L73.27 13.47L74.74 13.47L72.77 22L71.35 22L69.73 15.77L68.07 22L66.65 22ZM80.38 22L78.90 22L78.90 13.47L80.38 13.47L80.38 22ZM86.87 14.66L84.23 14.66L84.23 13.47L91.00 13.47L91.00 14.66L88.34 14.66L88.34 22L86.87 22L86.87 14.66ZM96.24 22L94.75 22L94.75 13.47L96.24 13.47L96.24 17.02L100.05 17.02L100.05 13.47L101.53 13.47L101.53 22L100.05 22L100.05 18.21L96.24 18.21L96.24 22Z" fill="#FFFFFF"/><path class="svg__text" d="M129.88 22L127.50 22L127.50 13.60L131.34 13.60Q132.48 13.60 133.32 13.98Q134.16 14.35 134.62 15.06Q135.07 15.76 135.07 16.71L135.07 16.71Q135.07 17.62 134.65 18.30Q134.22 18.98 133.43 19.36L133.43 19.36L135.24 22L132.70 22L131.17 19.77L129.88 19.77L129.88 22ZM129.88 15.47L129.88 17.93L131.20 17.93Q131.93 17.93 132.30 17.61Q132.67 17.29 132.67 16.71L132.67 16.71Q132.67 16.12 132.30 15.79Q131.93 15.47 131.20 15.47L131.20 15.47L129.88 15.47ZM146.61 22L139.86 22L139.86 13.60L146.45 13.60L146.45 15.44L142.22 15.44L142.22 16.85L145.95 16.85L145.95 18.63L142.22 18.63L142.22 20.17L146.61 20.17L146.61 22ZM150.98 17.80L150.98 17.80Q150.98 16.54 151.58 15.54Q152.18 14.55 153.23 13.99Q154.28 13.43 155.60 13.43L155.60 13.43Q156.75 13.43 157.68 13.84Q158.60 14.25 159.21 15.02L159.21 15.02L157.70 16.39Q156.89 15.40 155.72 15.40L155.72 15.40Q155.04 15.40 154.50 15.70Q153.97 16 153.67 16.54Q153.38 17.09 153.38 17.80L153.38 17.80Q153.38 18.51 153.67 19.05Q153.97 19.60 154.50 19.90Q155.04 20.20 155.72 20.20L155.72 20.20Q156.89 20.20 157.70 19.22L157.70 19.22L159.21 20.58Q158.61 21.35 157.68 21.76Q156.75 22.17 155.60 22.17L155.60 22.17Q154.28 22.17 153.23 21.61Q152.18 21.05 151.58 20.05Q150.98 19.06 150.98 17.80ZM166.13 22L163.75 22L163.75 13.60L166.13 13.60L166.13 16.76L169.37 16.76L169.37 13.60L171.74 13.60L171.74 22L169.37 22L169.37 18.72L166.13 18.72L166.13 22ZM178.32 22L175.90 22L179.61 13.60L181.95 13.60L185.66 22L183.20 22L182.53 20.37L178.98 20.37L178.32 22ZM180.76 15.93L179.68 18.61L181.84 18.61L180.76 15.93ZM192.20 22L189.82 22L189.82 13.60L193.66 13.60Q194.80 13.60 195.64 13.98Q196.48 14.35 196.94 15.06Q197.39 15.76 197.39 16.71L197.39 16.71Q197.39 17.62 196.97 18.30Q196.54 18.98 195.75 19.36L195.75 19.36L197.56 22L195.02 22L193.49 19.77L192.20 19.77L192.20 22ZM192.20 15.47L192.20 17.93L193.52 17.93Q194.25 17.93 194.62 17.61Q194.99 17.29 194.99 16.71L194.99 16.71Q194.99 16.12 194.62 15.79Q194.25 15.47 193.52 15.47L193.52 15.47L192.20 15.47ZM203.97 15.48L201.39 15.48L201.39 13.60L208.91 13.60L208.91 15.48L206.35 15.48L206.35 22L203.97 22L203.97 15.48ZM212.70 21.24L212.70 21.24L213.48 19.49Q214.04 19.86 214.78 20.09Q215.53 20.32 216.25 20.32L216.25 20.32Q217.62 20.32 217.62 19.64L217.62 19.64Q217.62 19.28 217.23 19.11Q216.84 18.93 215.97 18.74L215.97 18.74Q215.03 18.53 214.39 18.30Q213.75 18.06 213.30 17.55Q212.85 17.03 212.85 16.16L212.85 16.16Q212.85 15.39 213.26 14.77Q213.68 14.15 214.52 13.79Q215.35 13.43 216.56 13.43L216.56 13.43Q217.39 13.43 218.19 13.62Q219.00 13.80 219.61 14.17L219.61 14.17L218.88 15.93Q217.68 15.28 216.55 15.28L216.55 15.28Q215.84 15.28 215.52 15.49Q215.20 15.70 215.20 16.04L215.20 16.04Q215.20 16.37 215.58 16.54Q215.96 16.71 216.81 16.89L216.81 16.89Q217.77 17.10 218.40 17.33Q219.03 17.56 219.50 18.07Q219.96 18.58 219.96 19.46L219.96 19.46Q219.96 20.21 219.54 20.83Q219.12 21.44 218.28 21.80Q217.44 22.17 216.24 22.17L216.24 22.17Q215.22 22.17 214.26 21.92Q213.30 21.67 212.70 21.24Z" fill="#FFFFFF" x="126.31"/></svg>